# xmcd
#
# Track frame offsets: 
#        150
#        17477
#        37970
#        59450
#        72640
#        85522
#        96487
#        113967
#        133202
#        147210
#        158130
#        172012
#
# Disc length: 2498 seconds
#
# Revision: 5
# Processed by: cddbd v1.5.2PL0 Copyright (c) Steve Scherf et al.
# Submitted via: ExactAudioCopy v0.99pb5
#
DISCID=a709c00c
DTITLE=Bud Powell - The Amazing Bud Powell, Vol.1
DYEAR=1951
DGENRE=Jazz
TTITLE0=Un Poco Loco (1st take)
TTITLE1=Un Poco Loco (2nd take)
TTITLE2=Un Poco Loco
TTITLE3=Dance Of The Infidels
TTITLE4=52nd St. Theme
TTITLE5=It Could Happen To You (Alternate Master)
TTITLE6=A Night In Tunisia (Alternate Master)
TTITLE7=A Night In Tunisia
TTITLE8=Wail
TTITLE9=Ornithology
TTITLE10=Bouncing With Bud
TTITLE11=Parisian Thoroughfare
EXTD=YEAR: 1951
EXTT0=
EXTT1=
EXTT2=
EXTT3=
EXTT4=
EXTT5=
EXTT6=
EXTT7=
EXTT8=
EXTT9=
EXTT10=
EXTT11=
PLAYORDER=
